<?xml version="1.0" encoding="UTF-8" standalone="no"?>
<svg
   xmlns:dc="http://purl.org/dc/elements/1.1/"
   xmlns:cc="http://creativecommons.org/ns#"
   xmlns:rdf="http://www.w3.org/1999/02/22-rdf-syntax-ns#"
   xmlns:svg="http://www.w3.org/2000/svg"
   xmlns="http://www.w3.org/2000/svg"
   xmlns:sodipodi="http://sodipodi.sourceforge.net/DTD/sodipodi-0.dtd"
   xmlns:inkscape="http://www.inkscape.org/namespaces/inkscape"
   enable-background="new 0 0 24 24"
   height="24"
   viewBox="0 0 27.060667 24"
   width="27.060667"
   version="1.1"
   id="svg24"
   sodipodi:docname="people.svg"
   inkscape:version="1.0 (4035a4fb49, 2020-05-01)">
  <metadata
     id="metadata30">
    <rdf:RDF>
      <cc:Work
         rdf:about="">
        <dc:format>image/svg+xml</dc:format>
        <dc:type
           rdf:resource="http://purl.org/dc/dcmitype/StillImage" />
        <dc:title />
      </cc:Work>
    </rdf:RDF>
  </metadata>
  <defs
     id="defs28" />
  <sodipodi:namedview
     inkscape:document-rotation="0"
     pagecolor="#ffffff"
     bordercolor="#666666"
     borderopacity="1"
     objecttolerance="10"
     gridtolerance="10"
     guidetolerance="10"
     inkscape:pageopacity="0"
     inkscape:pageshadow="2"
     inkscape:window-width="1278"
     inkscape:window-height="1368"
     id="namedview26"
     showgrid="false"
     inkscape:zoom="36.708333"
     inkscape:cx="4.6369258"
     inkscape:cy="12.256122"
     inkscape:window-x="0"
     inkscape:window-y="0"
     inkscape:window-maximized="0"
     inkscape:current-layer="g20"
     fit-margin-top="0"
     fit-margin-left="0"
     fit-margin-right="0"
     fit-margin-bottom="0" />
  <g
     id="g4"
     transform="translate(3.0606674)">
    <rect
       fill="none"
       height="24"
       width="24"
       id="rect2"
       x="0"
       y="0" />
  </g>
  <g
     id="g22"
     transform="translate(3.0606674)">
    <g
       id="g6" />
    <g
       id="g20">
      <circle
         cx="9"
         cy="8"
         opacity=".3"
         r="2"
         id="circle8"
         style="opacity:1;fill:#ff00dd;fill-opacity:1;fill-rule:evenodd" />
      <path
         style="fill:#ff00dd;fill-opacity:1;opacity:1"
         d="M 9,15 C 6.3,15 3.2,16.29 3,17.01 V 18 H 15 V 17 C 14.8,16.29 11.7,15 9,15 Z"
         opacity="0.3"
         id="path10" />
      <path
         d="m 15.689296,12.803018 c 1.157746,0.752988 1.969014,1.773166 1.969014,3.133402 v 2.428994 h 3.380282 V 15.93642 c 0,-1.765069 -3.016902,-2.809536 -5.349296,-3.133402 z"
         id="path12"
         style="stroke-width:0.827179;fill:#ff00ff;fill-opacity:1" />
      <path
         d="m 9,12 c 2.21,0 4,-1.79 4,-4 C 13,5.79 11.21,4 9,4 6.79,4 5,5.79 5,8 c 0,2.21 1.79,4 4,4 z M 9,6 c 1.1,0 2,0.9 2,2 0,1.1 -0.9,2 -2,2 C 7.9,10 7,9.1 7,8 7,6.9 7.9,6 9,6 Z"
         id="path16" />
      <path
         d="m 9,13 c -2.67,0 -8,1.34 -8,4 v 3 h 16 v -3 c 0,-2.66 -5.33,-4 -8,-4 z m 6,5 H 3 V 17.01 C 3.2,16.29 6.3,15 9,15 c 2.7,0 5.8,1.29 6,2 z"
         id="path18" />
      <path
         style="stroke-width:0.618352;fill:#ff00ff;fill-opacity:1"
         d="m 15.664784,11.845548 c 1.396733,0 2.528025,-1.082939 2.528025,-2.4199753 0,-1.3370375 -1.131292,-2.4199772 -2.528025,-2.4199772 -0.297042,0 -0.575125,0.0605 -0.840569,0.1451985 0.524565,0.6231441 0.840569,1.4156867 0.840569,2.2747787 0,0.8590923 -0.316004,1.6516323 -0.840569,2.2747763 0.265444,0.08469 0.543527,0.145199 0.840569,0.145199 z"
         id="path14-3-7" />
      <path
         id="path14-3-7-0"
         d="m 15.812443,11.001048 c 0.73392,0 1.328362,-0.668455 1.328362,-1.4937542 0,-0.8253006 -0.594442,-1.4937566 -1.328362,-1.4937566 -0.156084,0 -0.287746,0.018088 -0.427224,0.070369 0.193909,0.425505 0.292491,0.9280406 0.284205,1.4165767 -0.0075,0.4412787 -0.131995,0.8356051 -0.319093,1.3973181 0.139475,0.05228 0.306028,0.103251 0.462112,0.103251 z"
         style="opacity:0.425807;fill:#ff00ff;fill-opacity:1;stroke-width:0.352157"
         sodipodi:nodetypes="csscsccc" />
      <path
         style="opacity:0.445161;fill:#ff00ff;fill-opacity:1;stroke-width:0.514643"
         id="path12-6"
         d="m 16.624308,13.542654 c 0.52546,0.609115 1.027192,1.302114 1.027192,2.298757 v 1.87701 h 1.693272 v -1.87701 c 0,-1.363963 -1.552107,-2.04849 -2.720464,-2.298757 z"
         sodipodi:nodetypes="csccsc" />
      <path
         id="path14-3-7-6"
         d="m 2.5829786,11.818599 c -1.396733,0 -2.528025,-1.082939 -2.528025,-2.4199745 0,-1.337038 1.131292,-2.4199776 2.528025,-2.4199776 0.297042,0 0.575125,0.0605 0.840569,0.1451985 -0.524565,0.6231441 -0.840569,1.4156871 -0.840569,2.2747791 0,0.8590915 0.316004,1.6516315 0.840569,2.2747755 -0.265444,0.08469 -0.543527,0.145198 -0.840569,0.145199 z"
         style="stroke-width:0.618352;fill:#ff00ff;fill-opacity:1" />
      <path
         sodipodi:nodetypes="csscsccc"
         style="opacity:0.425807;fill:#ff00ff;fill-opacity:1;stroke-width:0.352157"
         d="m 2.4290506,11.001766 c -0.73392,0 -1.328362,-0.668455 -1.328362,-1.4937526 0,-0.8253006 0.594442,-1.4937566 1.328362,-1.4937566 0.156084,0 0.287746,0.018088 0.427224,0.070369 -0.193909,0.425505 -0.292491,0.9280406 -0.284205,1.4165767 0.0075,0.4412787 0.131995,0.8356035 0.319093,1.3973165 -0.139475,0.05228 -0.306028,0.103251 -0.462112,0.103251 z"
         id="path14-3-7-0-4" />
      <path
         style="stroke-width:0.827179;fill:#ff00ff;fill-opacity:1"
         id="path12-4"
         d="m 2.2886286,12.776069 c -1.157746,0.752988 -1.969014,1.773166 -1.969014,3.133402 v 2.428994 h -3.380282 v -2.428994 c 0,-1.765069 3.016902,-2.809536 5.349296,-3.133402 z" />
      <path
         sodipodi:nodetypes="csccsc"
         d="m 1.3325946,13.543 c -0.52546,0.609115 -1.027192,1.302114 -1.027192,2.298757 v 1.87701 h -1.693272 v -1.87701 c 0,-1.363963 1.552107,-2.04849 2.720464,-2.298757 z"
         id="path12-6-2"
         style="opacity:0.445161;fill:#ff00ff;fill-opacity:1;stroke-width:0.514643" />
    </g>
  </g>
</svg>
