<svg
      xmlns="http://www.w3.org/2000/svg"
      width="27.061"
      height="24"
      version="1.1"
      viewBox="0 0 27.061 24"
    >
      <g transform="translate(3.06)">
        <path fill="none" d="M0 0H24V24H0z"></path>
      </g>
      <g transform="translate(3.06)">
        <g>
          <circle
            cx="9"
            cy="8"
            r="2"
            fill="#f0d"
            fillOpacity="1"
            fillRule="evenodd"
            opacity="1"
          ></circle>
          <path
            fill="#f0d"
            fillOpacity="1"
            d="M9 15c-2.7 0-5.8 1.29-6 2.01V18h12v-1c-.2-.71-3.3-2-6-2z"
            opacity="1"
          ></path>
          <path
            fill="#f0f"
            fillOpacity="1"
            strokeWidth="0.827"
            d="M15.69 12.803c1.157.753 1.968 1.773 1.968 3.133v2.43h3.38v-2.43c0-1.765-3.016-2.81-5.349-3.133z"
          ></path>
          <path d="M9 12c2.21 0 4-1.79 4-4s-1.79-4-4-4-4 1.79-4 4 1.79 4 4 4zm0-6c1.1 0 2 .9 2 2s-.9 2-2 2-2-.9-2-2 .9-2 2-2z"></path>
          <path d="M9 13c-2.67 0-8 1.34-8 4v3h16v-3c0-2.66-5.33-4-8-4zm6 5H3v-.99C3.2 16.29 6.3 15 9 15s5.8 1.29 6 2z"></path>
          <path
            fill="#f0f"
            fillOpacity="1"
            strokeWidth="0.618"
            d="M15.665 11.846c1.397 0 2.528-1.083 2.528-2.42s-1.131-2.42-2.528-2.42c-.297 0-.575.06-.84.145.524.623.84 1.415.84 2.275 0 .859-.316 1.651-.84 2.274.265.085.543.146.84.146z"
          ></path>
          <path
            fill="#f0f"
            fillOpacity="1"
            strokeWidth="0.352"
            d="M15.812 11.001c.734 0 1.329-.668 1.329-1.494 0-.825-.595-1.493-1.329-1.493-.156 0-.287.018-.427.07.194.425.293.928.284 1.416-.007.442-.132.836-.319 1.398.14.052.306.103.462.103z"
            opacity="0.426"
          ></path>
          <path
            fill="#f0f"
            fillOpacity="1"
            strokeWidth="0.515"
            d="M16.624 13.543c.526.609 1.028 1.302 1.028 2.298v1.877h1.693v-1.877c0-1.364-1.552-2.048-2.72-2.298z"
            opacity="0.445"
          ></path>
          <path
            fill="#f0f"
            fillOpacity="1"
            strokeWidth="0.618"
            d="M2.583 11.819c-1.397 0-2.528-1.083-2.528-2.42s1.131-2.42 2.528-2.42c.297 0 .575.06.84.145a3.523 3.523 0 00-.84 2.275c0 .859.316 1.651.84 2.274a2.746 2.746 0 01-.84.146z"
          ></path>
          <path
            fill="#f0f"
            fillOpacity="1"
            strokeWidth="0.352"
            d="M2.43 11.002c-.735 0-1.33-.669-1.33-1.494s.595-1.494 1.33-1.494c.155 0 .287.018.426.07a3.342 3.342 0 00-.284 1.417c.008.441.132.836.32 1.398-.14.052-.307.103-.463.103z"
            opacity="0.426"
          ></path>
          <path
            fill="#f0f"
            fillOpacity="1"
            strokeWidth="0.827"
            d="M2.289 12.776C1.13 13.53.319 14.55.319 15.91v2.43h-3.38v-2.43c0-1.765 3.017-2.81 5.35-3.133z"
          ></path>
          <path
            fill="#f0f"
            fillOpacity="1"
            strokeWidth="0.515"
            d="M1.333 13.543c-.526.61-1.028 1.302-1.028 2.299v1.877h-1.693v-1.877c0-1.364 1.552-2.049 2.72-2.299z"
            opacity="0.445"
          ></path>
        </g>
      </g>
    </svg>